# xmcd CD database file
#
# Track frame offsets:
#	150
#	26212
#	54332
#	72522
#	100275
#	119767
#	141735
#	164727
#	198770
#	221332
#
# Disc length: 3331 seconds
#
# Revision: 0
# Processed by: cddbd v1.5PL3 Copyright (c) Steve Scherf et al.
# Submitted via: CDex 1.51
#
DISCID=a10d010a
DTITLE=Manhattan Trinity - Alfie
DYEAR=2004
DGENRE=Jazz
TTITLE0=Alfie
TTITLE1=Another Star
TTITLE2=St. Thomas
TTITLE3=Mack The Knife
TTITLE4=I'm Through With Love
TTITLE5=Mercy Mercy Mercy
TTITLE6=Doxy
TTITLE7=If You Could See Me Now
TTITLE8=Stand By Me
TTITLE9=Send One Your Love
EXTD=YEAR: 2004
EXTT0=
EXTT1=
EXTT2=
EXTT3=
EXTT4=
EXTT5=
EXTT6=
EXTT7=
EXTT8=
EXTT9=
PLAYORDER=
